<svg xmlns="http://www.w3.org/2000/svg" width="1200" height="800" viewBox="0 0 1200 800">
  <defs>
    <linearGradient id="bg-grad" x1="0%" y1="0%" x2="100%" y2="100%">
      <stop offset="0%" stop-color="#f8fbff" />
      <stop offset="100%" stop-color="#e8f4fd" />
    </linearGradient>
    <pattern id="plus-pattern" width="80" height="80" patternUnits="userSpaceOnUse">
      <path d="M35,25 L35,35 L25,35 L25,45 L35,45 L35,55 L45,55 L45,45 L55,45 L55,35 L45,35 L45,25 Z" fill="#0dcaf0" opacity="0.04"/>
    </pattern>
    <radialGradient id="circle-grad" cx="50%" cy="50%" r="50%" fx="50%" fy="50%">
      <stop offset="0%" stop-color="#0dcaf0" stop-opacity="0.03" />
      <stop offset="100%" stop-color="#0dcaf0" stop-opacity="0" />
    </radialGradient>
  </defs>
  
  <!-- Background -->
  <rect width="100%" height="100%" fill="url(#bg-grad)" />
  
  <!-- Medical Plus Pattern -->
  <rect width="100%" height="100%" fill="url(#plus-pattern)" />
  
  <!-- Decorative Elements -->
  <circle cx="150" cy="150" r="250" fill="url(#circle-grad)" />
  <circle cx="1050" cy="650" r="200" fill="url(#circle-grad)" />
  <circle cx="900" cy="200" r="150" fill="url(#circle-grad)" />
  
  <!-- Simple geometric elements instead of wavy lines -->
  <g opacity="0.025">
    <rect x="300" y="100" width="2" height="600" fill="#0dcaf0"/>
    <rect x="600" y="100" width="2" height="600" fill="#0dcaf0"/>
    <rect x="900" y="100" width="2" height="600" fill="#0dcaf0"/>
  </g>
</svg> 