<svg xmlns="http://www.w3.org/2000/svg" width="1200" height="800" viewBox="0 0 1200 800">
  <!-- Solo puntos individuales distribuidos uniformemente -->
  <g fill="#0dcaf0" opacity="0.015">
    <!-- Fila 1 -->
    <circle cx="60" cy="60" r="1"/>
    <circle cx="180" cy="60" r="1"/>
    <circle cx="300" cy="60" r="1"/>
    <circle cx="420" cy="60" r="1"/>
    <circle cx="540" cy="60" r="1"/>
    <circle cx="660" cy="60" r="1"/>
    <circle cx="780" cy="60" r="1"/>
    <circle cx="900" cy="60" r="1"/>
    <circle cx="1020" cy="60" r="1"/>
    <circle cx="1140" cy="60" r="1"/>
    
    <!-- Fila 2 -->
    <circle cx="120" cy="140" r="1"/>
    <circle cx="240" cy="140" r="1"/>
    <circle cx="360" cy="140" r="1"/>
    <circle cx="480" cy="140" r="1"/>
    <circle cx="600" cy="140" r="1"/>
    <circle cx="720" cy="140" r="1"/>
    <circle cx="840" cy="140" r="1"/>
    <circle cx="960" cy="140" r="1"/>
    <circle cx="1080" cy="140" r="1"/>
    
    <!-- Fila 3 -->
    <circle cx="60" cy="220" r="1"/>
    <circle cx="180" cy="220" r="1"/>
    <circle cx="300" cy="220" r="1"/>
    <circle cx="420" cy="220" r="1"/>
    <circle cx="540" cy="220" r="1"/>
    <circle cx="660" cy="220" r="1"/>
    <circle cx="780" cy="220" r="1"/>
    <circle cx="900" cy="220" r="1"/>
    <circle cx="1020" cy="220" r="1"/>
    <circle cx="1140" cy="220" r="1"/>
    
    <!-- Fila 4 -->
    <circle cx="120" cy="300" r="1"/>
    <circle cx="240" cy="300" r="1"/>
    <circle cx="360" cy="300" r="1"/>
    <circle cx="480" cy="300" r="1"/>
    <circle cx="600" cy="300" r="1"/>
    <circle cx="720" cy="300" r="1"/>
    <circle cx="840" cy="300" r="1"/>
    <circle cx="960" cy="300" r="1"/>
    <circle cx="1080" cy="300" r="1"/>
    
    <!-- Fila 5 -->
    <circle cx="60" cy="380" r="1"/>
    <circle cx="180" cy="380" r="1"/>
    <circle cx="300" cy="380" r="1"/>
    <circle cx="420" cy="380" r="1"/>
    <circle cx="540" cy="380" r="1"/>
    <circle cx="660" cy="380" r="1"/>
    <circle cx="780" cy="380" r="1"/>
    <circle cx="900" cy="380" r="1"/>
    <circle cx="1020" cy="380" r="1"/>
    <circle cx="1140" cy="380" r="1"/>
    
    <!-- Fila 6 -->
    <circle cx="120" cy="460" r="1"/>
    <circle cx="240" cy="460" r="1"/>
    <circle cx="360" cy="460" r="1"/>
    <circle cx="480" cy="460" r="1"/>
    <circle cx="600" cy="460" r="1"/>
    <circle cx="720" cy="460" r="1"/>
    <circle cx="840" cy="460" r="1"/>
    <circle cx="960" cy="460" r="1"/>
    <circle cx="1080" cy="460" r="1"/>
    
    <!-- Fila 7 -->
    <circle cx="60" cy="540" r="1"/>
    <circle cx="180" cy="540" r="1"/>
    <circle cx="300" cy="540" r="1"/>
    <circle cx="420" cy="540" r="1"/>
    <circle cx="540" cy="540" r="1"/>
    <circle cx="660" cy="540" r="1"/>
    <circle cx="780" cy="540" r="1"/>
    <circle cx="900" cy="540" r="1"/>
    <circle cx="1020" cy="540" r="1"/>
    <circle cx="1140" cy="540" r="1"/>
    
    <!-- Fila 8 -->
    <circle cx="120" cy="620" r="1"/>
    <circle cx="240" cy="620" r="1"/>
    <circle cx="360" cy="620" r="1"/>
    <circle cx="480" cy="620" r="1"/>
    <circle cx="600" cy="620" r="1"/>
    <circle cx="720" cy="620" r="1"/>
    <circle cx="840" cy="620" r="1"/>
    <circle cx="960" cy="620" r="1"/>
    <circle cx="1080" cy="620" r="1"/>
    
    <!-- Fila 9 -->
    <circle cx="60" cy="700" r="1"/>
    <circle cx="180" cy="700" r="1"/>
    <circle cx="300" cy="700" r="1"/>
    <circle cx="420" cy="700" r="1"/>
    <circle cx="540" cy="700" r="1"/>
    <circle cx="660" cy="700" r="1"/>
    <circle cx="780" cy="700" r="1"/>
    <circle cx="900" cy="700" r="1"/>
    <circle cx="1020" cy="700" r="1"/>
    <circle cx="1140" cy="700" r="1"/>
  </g>
</svg> 